<?xml version="1.0" encoding="UTF-8" standalone="no"?>
<svg
   xmlns:dc="http://purl.org/dc/elements/1.1/"
   xmlns:cc="http://creativecommons.org/ns#"
   xmlns:rdf="http://www.w3.org/1999/02/22-rdf-syntax-ns#"
   xmlns:svg="http://www.w3.org/2000/svg"
   xmlns="http://www.w3.org/2000/svg"
   xmlns:sodipodi="http://sodipodi.sourceforge.net/DTD/sodipodi-0.dtd"
   xmlns:inkscape="http://www.inkscape.org/namespaces/inkscape"
   height="96.48481pt"
   version="1.1"
   viewBox="0 0 147.98012 96.48481"
   width="147.98012pt"
   id="svg253"
   sodipodi:docname="Am_fine.svg"
   inkscape:version="1.0.2 (e86c870879, 2021-01-15)">
  <sodipodi:namedview
     pagecolor="#ffffff"
     bordercolor="#666666"
     borderopacity="1"
     objecttolerance="10"
     gridtolerance="10"
     guidetolerance="10"
     inkscape:pageopacity="0"
     inkscape:pageshadow="2"
     inkscape:window-width="1920"
     inkscape:window-height="1016"
     id="namedview255"
     showgrid="false"
     fit-margin-top="0"
     fit-margin-left="0"
     fit-margin-right="0"
     fit-margin-bottom="0"
     inkscape:zoom="3.5051521"
     inkscape:cx="74.540202"
     inkscape:cy="71.933545"
     inkscape:window-x="0"
     inkscape:window-y="27"
     inkscape:window-maximized="1"
     inkscape:current-layer="svg253"
     inkscape:document-rotation="0" />
  <metadata
     id="metadata2">
    <rdf:RDF>
      <cc:Work>
        <dc:type
           rdf:resource="http://purl.org/dc/dcmitype/StillImage" />
        <dc:date>2021-11-19T10:44:30.446020</dc:date>
        <dc:format>image/svg+xml</dc:format>
        <dc:creator>
          <cc:Agent>
            <dc:title>Matplotlib v3.4.3, https://matplotlib.org/</dc:title>
          </cc:Agent>
        </dc:creator>
        <dc:title />
      </cc:Work>
    </rdf:RDF>
  </metadata>
  <defs
     id="defs6">
    <style
       type="text/css"
       id="style4">*{stroke-linecap:butt;stroke-linejoin:round;}</style>
    <clipPath
       id="p18dab453e4-3">
      <rect
         height="217.44"
         width="334.79999"
         x="54"
         y="34.560001"
         id="rect248-6" />
    </clipPath>
  </defs>
  <defs
     id="defs251">
    <clipPath
       id="p18dab453e4">
      <rect
         height="217.44"
         width="334.79999"
         x="54"
         y="34.560001"
         id="rect248" />
    </clipPath>
  </defs>
  <path
     clip-path="url(#p18dab453e4-3)"
     d="m 69.218182,175.97774 c 0,0 2.030437,14.25943 3.043636,21.38943 1.015896,7.14898 1.494567,14.39484 3.043637,21.44753 0.757461,3.44861 1.413807,7.0136 3.043636,10.14574 0.755914,1.45269 1.570502,3.14112 3.043636,3.85637 1.102469,0.53528 2.456388,0.11887 3.676631,0.005 1.03553,-0.0966 2.028965,-0.49541 3.065427,-0.58145 0.834808,-0.0693 1.691323,-0.11098 2.512441,0.0548 1.025991,0.2071 1.992198,0.67027 2.920047,1.15467 1.079265,0.56345 1.868855,1.69948 3.043636,2.01913 0.980404,0.26676 2.106235,0.22621 3.043636,-0.16575 1.264835,-0.52887 1.927925,-1.96952 3.043635,-2.76621 0.89242,-0.63724 1.24615,-1.43518 2.88303,-1.58446 1.40405,-0.12804 2.19857,0.77542 3.20425,1.35208 1.09889,0.6301 2.00052,1.55675 3.04363,2.27543 0.98894,0.68135 1.96164,1.40673 3.04364,1.9278 0.9672,0.46579 1.98233,0.89127 3.04363,1.05276 1.00348,0.15269 2.02947,-0.13637 3.04364,-0.0944 1.02027,0.0422 2.02704,0.25143 3.04364,0.34762 1.01288,0.0958 2.02934,0.14903 3.04363,0.22859 1.01482,0.0796 2.03276,0.12928 3.04364,0.2489 1.01958,0.12065 2.02216,0.36901 3.04363,0.47237 0.95817,0.097 1.92297,0.15389 2.8859,0.13783 1.15911,-0.0193 2.30758,-0.24903 3.46639,-0.28166 1.07385,-0.0302 2.14787,0.0544 3.22184,0.0798 0.86679,0.0205 1.73371,0.0822 2.60042,0.0587 1.01717,-0.0276 2.03741,-0.0828 3.04364,-0.23409 1.14286,-0.17188 2.24778,-0.54196 3.38222,-0.76271 0.89691,-0.17452 1.80457,-0.28865 2.70505,-0.44367 1.15791,-0.19934 2.30491,-0.46536 3.4689,-0.62549 0.86856,-0.11949 1.76041,-0.0691 2.61837,-0.24956 1.01507,-0.21355 2.02769,-0.51156 2.95421,-0.97796 1.1405,-0.57411 2.0659,-1.50277 3.13306,-2.20385 0.95163,-0.62518 1.87671,-1.31223 2.91303,-1.78392 0.83938,-0.38206 1.71994,-0.7562 2.6392,-0.83029 1.20147,-0.0968 2.43613,0.13474 3.57868,0.51877 1.09857,0.36925 1.93901,1.3301 3.04364,1.6808 0.97289,0.30887 2.02425,0.28446 3.04364,0.33699 1.01323,0.0522 2.04655,0.16536 3.04363,-0.0222 1.0672,-0.20074 2.09961,-0.62487 3.04364,-1.16154 1.1246,-0.63932 2.31582,-1.33831 3.04364,-2.40776 1.97246,-2.89834 2.37584,-6.62587 3.04363,-10.06753 2.15691,-11.11627 2.09729,-22.55017 3.04364,-33.83414 1.09337,-13.03703 1.33287,-39.13132 3.04363,-39.1302 1.04895,6.8e-4 2.20548,7.40821 2.532,11.39666 1.00165,12.23515 1.94275,23.02602 3.04364,34.37049 1.20047,12.37068 1.05325,25.11537 3.55527,37.37844 0.66965,3.28215 1.0125,6.91358 3.04364,9.57731 0.73332,0.96171 3.04364,1.97489 3.04364,1.97489"
     style="fill:none;stroke:#2d94db;stroke-width:2.32500006;stroke-linecap:square;stroke-opacity:1;stroke-miterlimit:4;stroke-dasharray:none"
     id="path228"
     sodipodi:nodetypes="caaaaaaaaaaasaaaaaaaaaaaaaaaaaaaaaaaaaaaaaasssaac"
     transform="translate(-68.370004,-145.81035)" />
</svg>
