<?xml version="1.0" encoding="UTF-8" standalone="no"?>
<svg
   xmlns:dc="http://purl.org/dc/elements/1.1/"
   xmlns:cc="http://creativecommons.org/ns#"
   xmlns:rdf="http://www.w3.org/1999/02/22-rdf-syntax-ns#"
   xmlns:svg="http://www.w3.org/2000/svg"
   xmlns="http://www.w3.org/2000/svg"
   xmlns:sodipodi="http://sodipodi.sourceforge.net/DTD/sodipodi-0.dtd"
   xmlns:inkscape="http://www.inkscape.org/namespaces/inkscape"
   sodipodi:docname="logo.svg"
   id="svg8"
   version="1.1"
   viewBox="0 0 57.656128 42.41045"
   height="42.41045mm"
   width="57.656128mm"
   inkscape:version="1.0.2 (e86c870879, 2021-01-15)">
  <defs
     id="defs2" />
  <sodipodi:namedview
     id="base"
     pagecolor="#ffffff"
     bordercolor="#666666"
     borderopacity="1.0"
     inkscape:pageopacity="0.0"
     inkscape:pageshadow="2"
     inkscape:zoom="1.3340232"
     inkscape:cx="51.083975"
     inkscape:cy="178.62884"
     inkscape:document-units="mm"
     inkscape:current-layer="layer1"
     inkscape:document-rotation="0"
     showgrid="true"
     inkscape:window-width="1920"
     inkscape:window-height="1016"
     inkscape:window-x="0"
     inkscape:window-y="27"
     inkscape:window-maximized="1"
     inkscape:snap-global="false"
     fit-margin-top="0"
     fit-margin-left="0"
     fit-margin-right="0"
     fit-margin-bottom="0">
    <inkscape:grid
       type="xygrid"
       id="grid1534"
       originx="-21.51943"
       originy="-29.610507" />
  </sodipodi:namedview>
  <metadata
     id="metadata5">
    <rdf:RDF>
      <cc:Work
         rdf:about="">
        <dc:format>image/svg+xml</dc:format>
        <dc:type
           rdf:resource="http://purl.org/dc/dcmitype/StillImage" />
        <dc:title></dc:title>
      </cc:Work>
    </rdf:RDF>
  </metadata>
  <g
     inkscape:label="Layer 1"
     inkscape:groupmode="layer"
     id="layer1"
     transform="translate(-21.519429,-29.610506)">
    <path
       id="path1532"
       style="opacity:0.995271;fill:none;fill-opacity:1;stroke:#ffffff;stroke-width:0.8;stroke-miterlimit:4;stroke-dasharray:none;stroke-opacity:1"
       d="m 66.028012,46.125866 a 12.747405,12.747405 0 0 0 -1.440223,0.08165 c -0.324501,1.197819 -0.531661,2.693395 -0.979268,3.693313 a 9.2930656,9.2930656 0 0 0 -2.213819,0.917258 c -1.023609,-0.390502 -2.227632,-1.301674 -3.30419,-1.919264 a 12.747405,12.747405 0 0 0 -2.037085,2.037085 c 0.617561,1.076492 1.528717,2.280095 1.919263,3.303675 a 9.2930656,9.2930656 0 0 0 -0.917257,2.214335 c -0.999916,0.447609 -2.495497,0.65424 -3.693314,0.978752 a 12.747405,12.747405 0 0 0 -0.08165,1.440222 12.747405,12.747405 0 0 0 0.08165,1.440223 c 1.197827,0.324508 2.693398,0.532103 3.693314,0.979783 a 9.2930656,9.2930656 0 0 0 0.917257,2.213819 c -0.390506,1.02361 -1.301665,2.227631 -1.919263,3.304191 a 12.747405,12.747405 0 0 0 2.036569,2.036569 c 1.076526,-0.61755 2.280565,-1.528196 3.304191,-1.918747 a 9.2930656,9.2930656 0 0 0 2.214334,0.917257 c 0.447607,0.999921 0.654767,2.494979 0.979268,3.692798 a 12.747405,12.747405 0 0 0 1.440223,0.08217 12.747405,12.747405 0 0 0 1.440222,-0.08217 c 0.324506,-1.19783 0.53159,-2.692877 0.979268,-3.692798 a 9.2930656,9.2930656 0 0 0 2.213819,-0.917257 c 1.023609,0.39044 2.227641,1.301146 3.304191,1.918747 a 12.747405,12.747405 0 0 0 2.037085,-2.036569 c -0.61754,-1.076521 -1.528712,-2.280055 -1.919264,-3.303675 a 9.2930656,9.2930656 0 0 0 0.917258,-2.214335 c 0.999921,-0.44768 2.494978,-0.655275 3.692797,-0.979783 a 12.747405,12.747405 0 0 0 0.08217,-1.440223 12.747405,12.747405 0 0 0 -0.08217,-1.440222 C 77.49558,57.108158 76.000512,56.901527 75.000591,56.453918 a 9.2930656,9.2930656 0 0 0 -0.917258,-2.214335 c 0.390441,-1.023609 1.301147,-2.227114 1.918748,-3.303675 a 12.747405,12.747405 0 0 0 -2.036569,-2.037085 c -1.076489,0.617551 -2.280103,1.528723 -3.303675,1.919264 A 9.2930656,9.2930656 0 0 0 68.447502,49.90083 C 67.999824,48.900912 67.79274,47.405346 67.468234,46.207517 a 12.747405,12.747405 0 0 0 -1.440222,-0.08165 z m 0,8.942607 a 3.8049358,3.8049358 0 0 1 3.804936,3.804936 3.8049358,3.8049358 0 0 1 -3.804936,3.804936 3.8049358,3.8049358 0 0 1 -3.804936,-3.804936 3.8049358,3.8049358 0 0 1 3.804936,-3.804936 z" />
    <path
       style="fill:none;stroke:#ffffff;stroke-width:0.8;stroke-linecap:butt;stroke-linejoin:miter;stroke-miterlimit:4;stroke-dasharray:none;stroke-opacity:1"
       d="m 51.982876,58.713482 -3.20511,1.910361 m 0,0 -26.458337,-15.27573 26.458337,-15.275727 26.458339,15.275727 -5.539891,3.015226"
       id="path1548"
       sodipodi:nodetypes="cccccc" />
    <path
       style="fill:none;stroke:#ffffff;stroke-width:0.8;stroke-linecap:butt;stroke-linejoin:miter;stroke-miterlimit:4;stroke-dasharray:none;stroke-opacity:1"
       d="M 48.970262,63.52098 22.124805,47.973281"
       id="path1552"
       sodipodi:nodetypes="cc" />
    <path
       style="fill:none;stroke:#ffffff;stroke-width:0.8;stroke-linecap:butt;stroke-linejoin:miter;stroke-miterlimit:4;stroke-dasharray:none;stroke-opacity:1"
       d="m 22.319429,48.315483 v -2.78509"
       id="path1554"
       sodipodi:nodetypes="cc" />
    <path
       style="fill:none;stroke:#ffffff;stroke-width:0.8;stroke-linecap:butt;stroke-linejoin:miter;stroke-miterlimit:4;stroke-dasharray:none;stroke-opacity:1"
       d="m 75.236105,48.133203 v -2.78509"
       id="path1556" />
    <path
       style="fill:none;stroke:#ffffff;stroke-width:0.8;stroke-linecap:butt;stroke-linejoin:miter;stroke-miterlimit:4;stroke-dasharray:none;stroke-opacity:1"
       d="M 48.777766,63.639803 V 60.382595"
       id="path1558"
       sodipodi:nodetypes="cc" />
    <path
       style="fill:none;stroke:#ffffff;stroke-width:0.8;stroke-linecap:butt;stroke-linejoin:miter;stroke-miterlimit:4;stroke-dasharray:none;stroke-opacity:1"
       d="M 48.577198,63.511611 52.552497,61.27612"
       id="path1563"
       sodipodi:nodetypes="cc" />
  </g>
</svg>
