<?xml version="1.0" encoding="UTF-8" standalone="no"?>
<svg
   xmlns:dc="http://purl.org/dc/elements/1.1/"
   xmlns:cc="http://creativecommons.org/ns#"
   xmlns:rdf="http://www.w3.org/1999/02/22-rdf-syntax-ns#"
   xmlns:svg="http://www.w3.org/2000/svg"
   xmlns="http://www.w3.org/2000/svg"
   xmlns:sodipodi="http://sodipodi.sourceforge.net/DTD/sodipodi-0.dtd"
   xmlns:inkscape="http://www.inkscape.org/namespaces/inkscape"
   sodipodi:docname="logo.svg"
   id="svg8"
   version="1.1"
   viewBox="0 0 115.85514 43.549007"
   height="43.549007mm"
   width="115.85514mm"
   inkscape:version="1.0.2 (e86c870879, 2021-01-15)">
  <defs
     id="defs2">
    <rect
       x="82.816887"
       y="32.94154"
       width="134.90794"
       height="34.000381"
       id="rect849" />
  </defs>
  <sodipodi:namedview
     id="base"
     pagecolor="#ffffff"
     bordercolor="#666666"
     borderopacity="1.0"
     inkscape:pageopacity="0.0"
     inkscape:pageshadow="2"
     inkscape:zoom="0.80752222"
     inkscape:cx="110.62956"
     inkscape:cy="189.48299"
     inkscape:document-units="mm"
     inkscape:current-layer="layer1"
     inkscape:document-rotation="0"
     showgrid="true"
     inkscape:window-width="1920"
     inkscape:window-height="1016"
     inkscape:window-x="0"
     inkscape:window-y="27"
     inkscape:window-maximized="1"
     inkscape:snap-global="false"
     fit-margin-top="0"
     fit-margin-left="0"
     fit-margin-right="0"
     fit-margin-bottom="0">
    <inkscape:grid
       type="xygrid"
       id="grid1534"
       originx="36.152372"
       originy="-28.999014" />
  </sodipodi:namedview>
  <metadata
     id="metadata5">
    <rdf:RDF>
      <cc:Work
         rdf:about="">
        <dc:format>image/svg+xml</dc:format>
        <dc:type
           rdf:resource="http://purl.org/dc/dcmitype/StillImage" />
        <dc:title></dc:title>
      </cc:Work>
    </rdf:RDF>
  </metadata>
  <g
     inkscape:label="Layer 1"
     inkscape:groupmode="layer"
     id="layer1"
     transform="translate(36.15237,-28.999014)">
    <path
       id="path859"
       style="opacity:0.995271;fill:none;fill-opacity:1;stroke:#fefefe;stroke-width:0.8;stroke-miterlimit:4;stroke-dasharray:none;stroke-opacity:1"
       d="m 65.720703,45.599609 c -0.522002,0.01324 -1.041863,0.0615 -1.560547,0.121094 -0.349865,1.262338 -0.49701,2.539865 -0.960937,3.746094 -0.634303,0.193448 -1.251964,0.445255 -1.833985,0.763672 -1.16665,-0.551471 -2.20005,-1.339772 -3.318359,-1.978516 -0.992854,0.75986 -1.873189,1.654844 -2.642578,2.638672 0.636453,1.120794 1.444212,2.155653 1.974609,3.328125 -0.312955,0.585319 -0.573324,1.200332 -0.757812,1.837891 -1.22774,0.445166 -2.484058,0.601332 -3.75,0.951171 -0.156685,1.238212 -0.155218,2.492278 0,3.730469 1.262635,0.356265 2.540886,0.495606 3.75,0.962891 0.194335,0.633533 0.444586,1.249803 0.761718,1.832031 -0.545824,1.170084 -1.337984,2.201511 -1.976562,3.320313 0.760953,0.991226 1.651772,1.877798 2.640625,2.640625 1.120085,-0.634871 2.15556,-1.442745 3.326172,-1.972657 0.583979,0.318794 1.203295,0.569943 1.839844,0.761719 0.435052,1.21535 0.600858,2.462594 0.949218,3.746094 1.239294,0.157312 2.495832,0.160565 3.734375,-0.0039 0.350612,-1.279591 0.505033,-2.537554 0.953125,-3.744141 0.637844,-0.189396 1.254403,-0.447419 1.839844,-0.763672 1.168416,0.547214 2.200104,1.338529 3.318359,1.976563 0.989473,-0.762173 1.881366,-1.648971 2.638672,-2.642579 -0.626036,-1.12313 -1.451577,-2.153192 -1.966796,-3.326171 0.313815,-0.585246 0.567645,-1.20216 0.757812,-1.837891 1.215489,-0.43678 2.459002,-0.595797 3.744141,-0.949219 0.160744,-1.237432 0.162909,-2.493532 -0.002,-3.730469 -1.282277,-0.359013 -2.546108,-0.505403 -3.744141,-0.958984 -0.192554,-0.635831 -0.447531,-1.253527 -0.763672,-1.83789 0.548261,-1.168085 1.337835,-2.200441 1.976563,-3.31836 -0.762624,-0.990135 -1.649654,-1.878721 -2.640626,-2.640625 -1.119969,0.633595 -2.15487,1.442988 -3.324218,1.972656 -0.585798,-0.313742 -1.202759,-0.571691 -1.839844,-0.759765 -0.440487,-1.220838 -0.597945,-2.461564 -0.949219,-3.748047 -0.72199,-0.07838 -1.447006,-0.137264 -2.173828,-0.117188 z m 0.294922,9.998047 c 1.829272,-0.06013 3.438402,1.664514 3.285156,3.433594 -0.02188,1.746783 -1.758233,3.329127 -3.560547,3.105469 -1.868822,-0.121576 -3.319215,-2.024238 -2.9375,-3.833985 0.247467,-1.529331 1.661052,-2.722439 3.212891,-2.705078 z" />
    <path
       id="path861"
       style="fill:none;stroke:#fefefe;stroke-width:0.8;stroke-linecap:butt;stroke-linejoin:miter;stroke-miterlimit:4;stroke-dasharray:none;stroke-opacity:1"
       d="m 48.779297,61.234375 c 7.300879,-4.2559 -5.156351,2.700182 3.052491,-1.771333 M 70.360245,48.570007 c 1.88422,-1.025603 4.074252,-2.18242 5.958114,-3.208679 C 67.138209,40.060872 57.95755,34.761296 48.777344,29.460938 l -0.263672,0.152343 c -9.083981,5.244798 -18.167989,10.489548 -27.251953,15.734375 9.172652,5.295354 18.344175,10.59267 27.517578,15.886719"
       sodipodi:nodetypes="cccccccc" />
    <path
       id="path863"
       style="fill:none;stroke:#fefefe;stroke-width:0.8;stroke-linecap:butt;stroke-linejoin:miter;stroke-miterlimit:4;stroke-dasharray:none;stroke-opacity:1"
       d="M 21.859375,48.429688 C 30.807943,53.61263 39.75651,58.795573 48.705078,63.978516 49.124755,63.414423 49.432286,62.880123 48.544061,62.663497 39.826249,57.614206 31.108437,52.564916 22.390625,47.515625 22.213542,47.820313 22.036458,48.125 21.859375,48.429688 Z" />
    <path
       id="path865"
       style="fill:none;stroke:#fefefe;stroke-width:0.8;stroke-linecap:butt;stroke-linejoin:miter;stroke-miterlimit:4;stroke-dasharray:none;stroke-opacity:1"
       d="m 21.791016,48.316406 c 0.698483,0.07895 1.316485,0.07742 1.058593,-0.8 0,-0.661719 0,-1.323437 0,-1.985156 -0.698483,-0.07895 -1.316485,-0.07742 -1.058593,0.8 0,0.661719 0,1.323438 0,1.985156 z" />
    <path
       id="path867"
       style="fill:none;stroke:#fefefe;stroke-width:0.8;stroke-linecap:butt;stroke-linejoin:miter;stroke-miterlimit:4;stroke-dasharray:none;stroke-opacity:1"
       d="m 74.707031,48.132812 c 0.698484,0.07895 1.316486,0.07742 1.058594,-0.8 0,-0.661718 0,-1.323437 0,-1.985156 -0.698483,-0.07895 -1.316485,-0.07742 -1.058594,0.8 0,0.661719 0,1.323438 0,1.985156 z" />
    <path
       id="path869"
       style="fill:none;stroke:#fefefe;stroke-width:0.8;stroke-linecap:butt;stroke-linejoin:miter;stroke-miterlimit:4;stroke-dasharray:none;stroke-opacity:1"
       d="m 48.248047,63.640625 c 0.698483,0.07895 1.316485,0.07742 1.058594,-0.8 0,-0.819271 0,-1.638542 0,-2.457813 -0.698484,-0.07895 -1.316486,-0.07742 -1.058594,0.800001 0,0.81927 0,1.638541 0,2.457812 z" />
    <path
       id="path871"
       style="fill:none;stroke:#fefefe;stroke-width:0.8;stroke-linecap:butt;stroke-linejoin:miter;stroke-miterlimit:4;stroke-dasharray:none;stroke-opacity:1"
       d="m 48.318359,63.050781 c 0.274005,0.647281 0.578808,1.184376 1.216746,0.529585 1.092465,-0.614679 2.18493,-1.229359 3.277395,-1.844038 -0.274005,-0.647281 -0.578807,-1.184375 -1.216746,-0.529585 -1.092465,0.61468 -2.18493,1.229359 -3.277395,1.844038 z" />
    <path
       id="path1532"
       style="opacity:0.995271;fill:none;fill-opacity:1;stroke:#000000;stroke-width:0.8;stroke-miterlimit:4;stroke-dasharray:none;stroke-opacity:1"
       d="m 66.028012,46.125866 a 12.747405,12.747405 0 0 0 -1.440223,0.08165 c -0.324501,1.197819 -0.531661,2.693395 -0.979268,3.693313 a 9.2930656,9.2930656 0 0 0 -2.213819,0.917258 c -1.023609,-0.390502 -2.227632,-1.301674 -3.30419,-1.919264 a 12.747405,12.747405 0 0 0 -2.037085,2.037085 c 0.617561,1.076492 1.528717,2.280095 1.919263,3.303675 a 9.2930656,9.2930656 0 0 0 -0.917257,2.214335 c -0.999916,0.447609 -2.495497,0.65424 -3.693314,0.978752 a 12.747405,12.747405 0 0 0 -0.08165,1.440222 12.747405,12.747405 0 0 0 0.08165,1.440223 c 1.197827,0.324508 2.693398,0.532103 3.693314,0.979783 a 9.2930656,9.2930656 0 0 0 0.917257,2.213819 c -0.390506,1.02361 -1.301665,2.227631 -1.919263,3.304191 a 12.747405,12.747405 0 0 0 2.036569,2.036569 c 1.076526,-0.61755 2.280565,-1.528196 3.304191,-1.918747 a 9.2930656,9.2930656 0 0 0 2.214334,0.917257 c 0.447607,0.999921 0.654767,2.494979 0.979268,3.692798 a 12.747405,12.747405 0 0 0 1.440223,0.08217 12.747405,12.747405 0 0 0 1.440222,-0.08217 c 0.324506,-1.19783 0.53159,-2.692877 0.979268,-3.692798 a 9.2930656,9.2930656 0 0 0 2.213819,-0.917257 c 1.023609,0.39044 2.227641,1.301146 3.304191,1.918747 a 12.747405,12.747405 0 0 0 2.037085,-2.036569 c -0.61754,-1.076521 -1.528712,-2.280055 -1.919264,-3.303675 a 9.2930656,9.2930656 0 0 0 0.917258,-2.214335 c 0.999921,-0.44768 2.494978,-0.655275 3.692797,-0.979783 a 12.747405,12.747405 0 0 0 0.08217,-1.440223 12.747405,12.747405 0 0 0 -0.08217,-1.440222 C 77.49558,57.108158 76.000512,56.901527 75.000591,56.453918 a 9.2930656,9.2930656 0 0 0 -0.917258,-2.214335 c 0.390441,-1.023609 1.301147,-2.227114 1.918748,-3.303675 a 12.747405,12.747405 0 0 0 -2.036569,-2.037085 c -1.076489,0.617551 -2.280103,1.528723 -3.303675,1.919264 A 9.2930656,9.2930656 0 0 0 68.447502,49.90083 C 67.999824,48.900912 67.79274,47.405346 67.468234,46.207517 a 12.747405,12.747405 0 0 0 -1.440222,-0.08165 z m 0,8.942607 a 3.8049358,3.8049358 0 0 1 3.804936,3.804936 3.8049358,3.8049358 0 0 1 -3.804936,3.804936 3.8049358,3.8049358 0 0 1 -3.804936,-3.804936 3.8049358,3.8049358 0 0 1 3.804936,-3.804936 z" />
    <path
       style="fill:none;stroke:#000000;stroke-width:0.8;stroke-linecap:butt;stroke-linejoin:miter;stroke-miterlimit:4;stroke-dasharray:none;stroke-opacity:1"
       d="m 51.982876,58.713482 -3.20511,1.910361 m 0,0 -26.458337,-15.27573 26.458337,-15.275727 26.458339,15.275727 -5.539891,3.015226"
       id="path1548"
       sodipodi:nodetypes="cccccc" />
    <path
       style="fill:none;stroke:#000000;stroke-width:0.8;stroke-linecap:butt;stroke-linejoin:miter;stroke-miterlimit:4;stroke-dasharray:none;stroke-opacity:1"
       d="M 48.970262,63.52098 22.124805,47.973281"
       id="path1552"
       sodipodi:nodetypes="cc" />
    <path
       style="fill:none;stroke:#000000;stroke-width:0.8;stroke-linecap:butt;stroke-linejoin:miter;stroke-miterlimit:4;stroke-dasharray:none;stroke-opacity:1"
       d="m 22.319429,48.315483 v -2.78509"
       id="path1554"
       sodipodi:nodetypes="cc" />
    <path
       style="fill:none;stroke:#000000;stroke-width:0.8;stroke-linecap:butt;stroke-linejoin:miter;stroke-miterlimit:4;stroke-dasharray:none;stroke-opacity:1"
       d="m 75.236105,48.133203 v -2.78509"
       id="path1556" />
    <path
       style="fill:none;stroke:#000000;stroke-width:0.8;stroke-linecap:butt;stroke-linejoin:miter;stroke-miterlimit:4;stroke-dasharray:none;stroke-opacity:1"
       d="M 48.777766,63.639803 V 60.382595"
       id="path1558"
       sodipodi:nodetypes="cc" />
    <path
       style="fill:none;stroke:#000000;stroke-width:0.8;stroke-linecap:butt;stroke-linejoin:miter;stroke-miterlimit:4;stroke-dasharray:none;stroke-opacity:1"
       d="M 48.577198,63.511611 52.552497,61.27612"
       id="path1563"
       sodipodi:nodetypes="cc" />
    <text
       xml:space="preserve"
       id="text847"
       style="font-style:normal;font-weight:normal;font-size:19.7556px;line-height:1.25;font-family:sans-serif;letter-spacing:0px;word-spacing:0px;white-space:pre;shape-inside:url(#rect849);fill:#000000;fill-opacity:1;stroke:#ffffff;stroke-width:0.398929;stroke-miterlimit:4;stroke-dasharray:none;stroke-opacity:1;"
       transform="matrix(1.0026557,0,0,1.0027132,-119.62257,8.4384512)"><tspan
         x="82.816406"
         y="50.916536"><tspan
           style="font-style:italic;font-variant:normal;font-weight:500;font-stretch:condensed;font-family:'Fira Sans Condensed';-inkscape-font-specification:'Fira Sans Condensed, Medium Italic Condensed';stroke:#ffffff;stroke-width:0.398929;stroke-miterlimit:4;stroke-dasharray:none;stroke-opacity:1">DPXcontrol</tspan></tspan></text>
  </g>
</svg>
